<svg width="112" height="109" viewBox="0 0 112 109" fill="none" xmlns="http://www.w3.org/2000/svg">
<path d="M60.2039 54.0865L85.3948 28.8956L110.586 54.0865L85.3948 79.2775L60.2039 54.0865Z" fill="white" stroke="black" stroke-width="2"/>
<path d="M41.4157 71.2609L56 56.6765L70.5843 71.2609C76.4422 77.1187 76.4422 86.6162 70.5844 92.4741L68.5955 94.4629C61.6392 101.419 50.3608 101.419 43.4045 94.4629L41.4157 92.4741C35.5578 86.6162 35.5578 77.1187 41.4157 71.2609Z" fill="white" stroke="black" stroke-width="2"/>
<path d="M14.0097 41.0529L15.9986 39.0641C21.8564 33.2062 31.3539 33.2062 37.2118 39.0641L51.7961 53.6484L37.2118 68.2328C31.3539 74.0906 21.8564 74.0906 15.9986 68.2328L14.0097 66.2439C7.05341 59.2876 7.0534 48.0092 14.0097 41.0529Z" fill="white" stroke="black" stroke-width="2"/>
<path d="M41.4157 15.9986L43.4045 14.0097C50.3608 7.0534 61.6392 7.0534 68.5955 14.0097L70.5843 15.9986C76.4422 21.8564 76.4422 31.3539 70.5844 37.2118L56 51.7961L41.4157 37.2118C35.5578 31.3539 35.5578 21.8564 41.4157 15.9986Z" fill="white" stroke="black" stroke-width="2"/>
</svg>
